<svg width="24" height="24" fill="none" xmlns="http://www.w3.org/2000/svg"><g clip-path="url(#a)" fill="#3B82F6"><path d="M15.982 9.007c-.053-.522-.107-1.083-.16-1.644-.107-1.123.788-1.91 1.87-1.644.722.174 1.163.842 1.096 1.644a55.053 55.053 0 0 0-.133 1.537v.133c.294.147.574.281.882.428.013 0 .067-.04.12-.08.615-.455 1.336-.468 1.938 0 1.283.989 1.99 2.285 2.07 3.902.054.975.054 1.964-.36 2.886-.2.441-.468.842-.708 1.256-.027.054-.08.107-.12.174.454.254.801.575 1.002 1.029a2.116 2.116 0 0 1-1.63 2.98c-2.633.4-5.265.802-7.898 1.216-1.604.24-3.207.508-4.81.748-1.738.254-3.154-.307-4.183-1.75-.094-.12-.174-.147-.308-.12-.548.133-1.109.253-1.657.374-.882.187-1.496-.388-1.363-1.283 0-.04 0-.08.027-.134-.387-.026-.748-.16-.949-.508-.12-.213-.2-.467-.2-.708 0-.574.427-.949 1.136-1.056 0-.146-.027-.28-.027-.427.013-.682.588-1.163 1.256-1.03.588.121 1.19.255 1.777.388.147.04.228 0 .321-.12.254-.307.521-.588.802-.868.08-.08.133-.147.08-.268l-.722-2.004a.33.33 0 0 0-.213-.187c-1.203-.268-1.951-1.337-1.778-2.566 0-.094-.026-.214-.093-.28-.642-.669-.829-1.444-.561-2.326.04-.147.013-.214-.094-.307C.615 7.002.962 4.236 3.02 3.3c.08-.04.174-.12.214-.214.334-.869.962-1.377 1.87-1.537a.443.443 0 0 0 .281-.174 2.222 2.222 0 0 1 3.809.268c.107.2.214.28.44.294.522.013.976.24 1.364.6.147.135.307.241.48.322.522.254.91.614 1.15 1.149.053.12.12.16.254.174a2.234 2.234 0 0 1 1.884 3.34c-.08.147-.107.254 0 .415.254.414.348.868.294 1.35 0 .066.027.12.04.186.054-.026.12-.04.174-.066.227-.12.454-.241.708-.388v-.013ZM4.958 19.51a3.373 3.373 0 0 0 3.862 3.34c1.456-.213 2.9-.454 4.356-.667 2.833-.441 5.68-.869 8.512-1.297.722-.107 1.23-.668 1.23-1.35 0-.694-.482-1.255-1.216-1.376-1.323-.213-2.646-.4-3.97-.614-2.98-.455-5.946-.922-8.926-1.377-2.044-.307-3.862 1.283-3.862 3.341h.014Zm5.866-7.684s.04-.027.053-.04c-.173-.508-.374-1.015-.534-1.537-.147-.507-.481-.801-.962-.962-.227-.08-.454-.16-.682-.187-.48-.067-.962-.093-1.47-.133-.026-.2-.04-.441-.066-.682a6.371 6.371 0 0 1 2.485.28 141.03 141.03 0 0 1-1.243-2.351c.2-.12.401-.254.642-.414.52 1.002 1.029 1.977 1.55 2.98a5.908 5.908 0 0 1 1.617-2.299c.16.2.307.388.44.561-.013.04-.013.04-.013.054-.04.04-.08.08-.107.12-.721.735-1.229 1.59-1.456 2.606-.013.067-.027.147 0 .2.134.388.267.762.414 1.15.227-.321.414-.655.668-.95.575-.654 1.136-1.336 2.178-1.189.027-.574-.293-.962-.668-1.323.094-.106.174-.187.268-.28a1.477 1.477 0 0 0 .227-1.764c-.32-.575-.936-.855-1.604-.722-.133.027-.267.04-.4.067a2.55 2.55 0 0 1-.054-.28c-.134-.749-.628-1.243-1.323-1.323-.655-.08-1.27.294-1.563.975-.067.147-.134.187-.294.174-.816-.08-1.497.427-1.644 1.23-.04.186-.094.28-.294.333a2.23 2.23 0 0 0-1.604 1.951c-.08.909.415 1.79 1.243 2.205.107.054.227.12.32.16-.146.281-.307.522-.387.789-.214.668.08 1.323.722 1.724.133.08.187.16.107.307a.478.478 0 0 0-.054.147c-.32.922.334 1.911 1.297 1.978.294.027.588.067.881.107.548.08 1.096.16 1.658.254v-.12c-.241-.883-.214-1.778-.16-2.673 0-.08-.054-.2-.135-.254-.494-.348-1.055-.508-1.643-.615-.28-.053-.575-.067-.855-.107v-.721c.868.026 1.697.187 2.485.547l-.04.027ZM8.74 2.78a4.233 4.233 0 0 1-.053-.334c-.134-.708-.641-1.189-1.323-1.27-.641-.08-1.27.295-1.55.95-.067.16-.147.2-.32.187-.803-.08-1.497.44-1.618 1.23-.04.213-.12.293-.307.347a2.228 2.228 0 0 0-1.577 1.95c-.067.963.414 1.791 1.283 2.232.094.054.2.107.307.16-.067.094-.107.174-.147.241-.56.869-.387 1.71.495 2.258.147.094.147.174.08.294-.468.963.267 2.165 1.443 2.125.134 0 .2.04.24.174.174.508.361 1.029.549 1.537.106.307.227.614.334.935.213-.08.414-.16.614-.227-.026-.04-.026-.067-.04-.08-.52-.561-.735-1.216-.628-1.978a.38.38 0 0 0-.093-.227c-.655-.668-.842-1.457-.562-2.339.04-.133 0-.2-.093-.28a2.72 2.72 0 0 1-.895-1.15c-.655-1.51 0-3.207 1.47-3.928a.576.576 0 0 0 .267-.268c.347-.868.975-1.363 1.897-1.51.08 0 .174-.066.214-.133a2.38 2.38 0 0 1 1.042-.842c.04-.013.08-.04.12-.067a1.364 1.364 0 0 0-.56-.08c-.174 0-.361.067-.562.093H8.74Zm9.849 7.003a1.736 1.736 0 0 1-.04.2c-.067.254-.013.428.227.602.548.387.535 1.028-.027 1.39-.28.186-.641.28-.975.373-.24.067-.495.04-.762.067-.013.107-.04.227-.053.334 0 .936-.027 1.885-.014 2.82 0 .32.08.641.134.949 0 .067.107.147.174.16.895.147 1.804.28 2.699.414.067 0 .2-.053.227-.12.147-.387.348-.775.388-1.163.08-.815.12-1.657.08-2.472-.054-1.35-.642-2.472-1.697-3.34-.107-.094-.24-.147-.374-.228l.013.014Zm-2.552.04c-.08.04-.134.053-.174.08-.04.027-.094.053-.134.094-.842.654-1.416 1.496-1.657 2.552-.213.922-.133 1.87-.107 2.82 0 .24.08.467.107.694.027.134.08.187.228.214.48.067.948.147 1.43.214.186.027.387.053.574.08 0-.04.013-.04.013-.053-.187-1.377-.173-2.74-.04-4.116 0-.067-.053-.16-.12-.214-.067-.067-.174-.093-.254-.147-.601-.4-.628-1.069-.027-1.47.2-.133.254-.28.2-.481-.013-.08-.026-.147-.04-.254v-.013Zm4.049.187v.04c.026.04.053.08.08.107.614.748 1.056 1.59 1.162 2.552.08.748.067 1.497.08 2.245 0 .735-.146 1.43-.427 2.098-.027.054-.04.12-.067.187.04.014.054.027.067.027.147.027.294.04.428.067.173.053.28-.014.387-.147.601-.695.976-1.497 1.07-2.419.04-.387.04-.775.04-1.176 0-.735-.148-1.43-.482-2.085A4.274 4.274 0 0 0 21.1 9.942c-.334-.254-.828-.214-1.042.054l.027.013Zm-5.52.04c-.307-.334-.72-.347-1.108-.067a4.368 4.368 0 0 0-1.31 1.604c-.548 1.095-.508 2.271-.374 3.434.027.254.12.508.2.748.014.054.067.12.107.134.415.067.815.134 1.176.187-.013-.868-.04-1.724-.04-2.566 0-.347.054-.681.12-1.029.187-.935.615-1.737 1.256-2.458l-.026.013Zm1.59 1.19c.428.56 1.979.52 2.286.013-.107-.067-.2-.147-.32-.2-.415-.175-.415-.175-.361-.629v-.027c.093-1.055.2-2.111.293-3.18.04-.481-.28-.815-.748-.815-.494 0-.788.374-.735.909.107 1.122.2 2.245.308 3.354.013.173-.027.254-.2.307-.175.053-.335.147-.522.24v.027ZM4.21 19.121H1.617a.39.39 0 0 0-.4.388c-.001.2.173.347.4.374h2.392c.067 0 .134 0 .2-.013v-.749Zm.24-1.095c-.56-.12-1.108-.254-1.67-.361-.12-.027-.32 0-.36.093a.634.634 0 0 0-.04.441c.026.094.213.174.334.174.454.014.922 0 1.376 0 .205 0 .325-.116.36-.347Zm.014 2.94c-.053-.147 0-.334-.214-.348H2.606c-.214 0-.294.187-.267.441.026.187.16.32.347.28.588-.12 1.176-.253 1.777-.387v.014Z"/><path d="M14.673 17.652v3.715h-.722v-3.715h.722ZM7.964 17.652h.709v3.715h-.709v-3.715ZM10.957 17.652h.709v3.702h-.709v-3.702ZM16.944 18.388h.722v2.231h-.722v-2.231ZM19.938 20.232v-1.47h.721v1.47h-.721Z"/></g><defs><clipPath id="a"><path fill="#fff" d="M0 0h24v24H0z"/></clipPath></defs></svg>