<svg width="24" height="24" viewBox="0 0 24 24" fill="none" xmlns="http://www.w3.org/2000/svg">
<g clip-path="url(#clip0_804_22174)">
<path d="M15.9822 9.00664C15.9287 8.48548 15.8753 7.92424 15.8218 7.36299C15.7149 6.2405 16.6103 5.45208 17.6927 5.71934C18.4143 5.89306 18.8553 6.56121 18.7884 7.36299C18.735 7.87079 18.6949 8.37858 18.6548 8.89974C18.6548 8.95319 18.6548 9.00664 18.6548 9.03337C18.9488 9.18036 19.2294 9.31399 19.5368 9.46099C19.5501 9.46099 19.6036 9.4209 19.657 9.38081C20.2717 8.92646 20.9933 8.9131 21.5947 9.38081C22.8775 10.3697 23.5858 11.6659 23.6659 13.2828C23.7194 14.2583 23.7194 15.2472 23.3051 16.1692C23.1047 16.6102 22.8374 17.0111 22.5969 17.4254C22.5702 17.4788 22.5167 17.5323 22.4766 17.5991C22.931 17.853 23.2784 18.1737 23.4789 18.628C24.0668 19.9242 23.2651 21.3942 21.8486 21.608C19.2161 22.0089 16.5835 22.4098 13.951 22.824C12.3475 23.0645 10.7439 23.3318 9.14033 23.5723C7.40314 23.8262 5.98665 23.265 4.9577 21.8218C4.86416 21.7015 4.78398 21.6748 4.65035 21.7015C4.10247 21.8351 3.54122 21.9554 2.99334 22.0757C2.11138 22.2628 1.49668 21.6882 1.63031 20.7928C1.63031 20.7527 1.63031 20.7127 1.65703 20.6592C1.26951 20.6325 0.908703 20.4988 0.708258 20.1514C0.587991 19.9376 0.507812 19.6837 0.507812 19.4432C0.507812 18.8686 0.93543 18.4944 1.64367 18.3875C1.64367 18.2405 1.61694 18.1069 1.61694 17.9599C1.63031 17.2784 2.20492 16.7973 2.87307 16.9309C3.46104 17.0512 4.06238 17.1848 4.65035 17.3184C4.79735 17.3585 4.87752 17.3184 4.97106 17.1982C5.22496 16.8908 5.49222 16.6102 5.77285 16.3296C5.85302 16.2494 5.90648 16.1826 5.85302 16.0623C5.61249 15.3942 5.37196 14.726 5.13142 14.0579C5.10469 13.9777 4.99779 13.8841 4.91761 13.8708C3.71494 13.6035 2.96661 12.5345 3.14033 11.3051C3.14033 11.2115 3.1136 11.0913 3.04679 11.0245C2.40536 10.3563 2.21828 9.58125 2.48554 8.69929C2.52563 8.5523 2.4989 8.48548 2.392 8.39194C0.614717 7.00219 0.962156 4.23604 3.02006 3.30063C3.10024 3.26054 3.19378 3.18036 3.23387 3.08682C3.56795 2.21822 4.19601 1.71043 5.10469 1.55007C5.2116 1.53671 5.33187 1.45653 5.38532 1.37635C6.34746 -3.92795e-05 8.41873 0.133591 9.19378 1.64361C9.30069 1.84406 9.40759 1.92424 9.63476 1.9376C10.1559 1.95096 10.6103 2.17813 10.9978 2.53894C11.1448 2.67257 11.3051 2.77947 11.4789 2.85965C12 3.11355 12.3875 3.47435 12.6281 4.00887C12.6815 4.12914 12.7483 4.16923 12.882 4.18259C14.5791 4.2494 15.5947 6.02669 14.7662 7.52335C14.686 7.67034 14.6593 7.77724 14.7662 7.9376C15.0201 8.35185 15.1136 8.8062 15.0602 9.28727C15.0602 9.35408 15.0869 9.40753 15.1002 9.47435C15.1537 9.44762 15.2205 9.43426 15.274 9.40753C15.5011 9.28727 15.7283 9.167 15.9822 9.02001V9.00664ZM4.9577 19.51C4.9577 21.5679 6.77507 23.1447 8.81962 22.8507C10.2762 22.6369 11.7194 22.3964 13.176 22.1826C16.0089 21.7416 18.8553 21.314 21.6882 20.8864C22.4098 20.7795 22.9176 20.2182 22.9176 19.5367C22.9176 18.8418 22.4365 18.2806 21.7016 18.1603C20.3786 17.9465 19.0557 17.7594 17.7328 17.5456C14.7528 17.0913 11.7862 16.6236 8.80625 16.1692C6.76171 15.8619 4.94434 17.4521 4.94434 19.51H4.9577ZM10.8241 11.8262C10.8241 11.8262 10.8642 11.7995 10.8775 11.7862C10.7038 11.2784 10.5034 10.7706 10.343 10.2494C10.196 9.74161 9.86193 9.44762 9.38086 9.28727C9.15369 9.20709 8.92652 9.12691 8.69935 9.10018C8.21828 9.03337 7.73721 9.00664 7.22942 8.96655C7.20269 8.76611 7.18933 8.52557 7.1626 8.28504C8.00447 8.21822 8.79289 8.2984 9.64812 8.56566C9.20714 7.75052 8.80625 6.98883 8.40536 6.21377C8.60581 6.0935 8.80625 5.95987 9.04679 5.79952C9.56795 6.80174 10.0757 7.77724 10.5969 8.77947C10.9577 7.88415 11.4789 7.12246 12.2138 6.48103C12.3742 6.68148 12.5212 6.86856 12.6548 7.04228C12.6414 7.08237 12.6414 7.08237 12.6414 7.09573C12.6014 7.13582 12.5613 7.17591 12.5345 7.216C11.8129 7.95096 11.3051 8.8062 11.078 9.82179C11.0646 9.8886 11.0512 9.96878 11.078 10.0222C11.2116 10.4098 11.3452 10.7839 11.4922 11.1715C11.7194 10.8507 11.9065 10.5167 12.1604 10.2227C12.735 9.56789 13.2962 8.88638 14.3385 9.03337C14.3653 8.45876 14.0446 8.07123 13.6704 7.71043C13.7639 7.60352 13.8441 7.52335 13.9377 7.4298C14.4054 6.93537 14.4855 6.25386 14.1648 5.66588C13.8441 5.09127 13.2294 4.81065 12.5613 4.94428C12.4276 4.97101 12.294 4.98437 12.1604 5.0111C12.1336 4.90419 12.1203 4.82401 12.1069 4.73047C11.9733 3.98214 11.4789 3.48771 10.784 3.40753C10.1292 3.32735 9.51449 3.70152 9.22051 4.38303C9.15369 4.53003 9.08688 4.57012 8.92652 4.55675C8.11138 4.47658 7.42986 4.98437 7.28287 5.78615C7.24278 5.97323 7.18933 6.06678 6.98888 6.12023C6.09356 6.37413 5.4655 7.16254 5.38532 8.07123C5.30514 8.97992 5.79957 9.86188 6.62808 10.2761C6.73498 10.3296 6.85525 10.3964 6.94879 10.4365C6.8018 10.7171 6.64144 10.9576 6.56126 11.2249C6.34746 11.8931 6.64144 12.5478 7.28287 12.9487C7.4165 13.0289 7.46995 13.1091 7.38977 13.2561C7.36305 13.2962 7.34968 13.3496 7.33632 13.4031C7.01561 14.3251 7.6704 15.314 8.63253 15.3808C8.92652 15.4075 9.22051 15.4476 9.51449 15.4877C10.0624 15.5679 10.6103 15.6481 11.1715 15.7416C11.1715 15.6882 11.1715 15.6481 11.1715 15.6213C10.931 14.7394 10.9577 13.8441 11.0112 12.9487C11.0112 12.8686 10.9577 12.7483 10.8775 12.6948C10.3831 12.3474 9.82184 12.187 9.23387 12.0801C8.95325 12.0267 8.65926 12.0133 8.37864 11.9732V11.2516C9.24723 11.2784 10.0757 11.4387 10.8642 11.7995L10.8241 11.8262ZM8.73944 2.77947C8.71271 2.64584 8.69935 2.5523 8.68599 2.44539C8.55236 1.73715 8.04456 1.25609 7.36305 1.17591C6.72162 1.09573 6.09356 1.46989 5.81293 2.12468C5.74612 2.28504 5.66594 2.32513 5.49222 2.31176C4.69044 2.23159 3.99556 2.75274 3.8753 3.54116C3.83521 3.75497 3.75503 3.83515 3.56795 3.8886C2.67262 4.16923 2.05792 4.94428 1.99111 5.8396C1.92429 6.80174 2.40536 7.63025 3.27396 8.07123C3.3675 8.12468 3.47441 8.17813 3.58131 8.23159C3.51449 8.32513 3.47441 8.40531 3.43432 8.47212C2.87307 9.34072 3.04679 10.1826 3.92875 10.7305C4.07574 10.824 4.07574 10.9042 4.00893 11.0245C3.54122 11.9866 4.27619 13.1893 5.45213 13.1492C5.58576 13.1492 5.65258 13.1893 5.69267 13.3229C5.86639 13.8307 6.05347 14.3519 6.24055 14.8596C6.34746 15.167 6.46772 15.4743 6.57463 15.7951C6.78844 15.7149 6.98888 15.6347 7.18933 15.5679C7.1626 15.5278 7.1626 15.5011 7.14924 15.4877C6.62808 14.9265 6.41427 14.2717 6.52118 13.51C6.52118 13.4432 6.48109 13.3363 6.42763 13.2828C5.77285 12.6147 5.58576 11.8262 5.86639 10.9443C5.90648 10.8107 5.86639 10.7438 5.77285 10.6637C5.37196 10.3697 5.07797 9.98214 4.87752 9.51444C4.22273 8.00442 4.87752 6.30731 6.34746 5.58571C6.45436 5.53225 6.57463 5.42535 6.61472 5.31845C6.96216 4.44985 7.59022 3.95542 8.51227 3.80842C8.59245 3.80842 8.68599 3.74161 8.72608 3.67479C8.99334 3.28727 9.34078 3.02 9.76839 2.83292C9.80848 2.81956 9.84857 2.79283 9.88866 2.76611C9.70158 2.69929 9.51449 2.67257 9.32741 2.68593C9.15369 2.68593 8.96661 2.75274 8.76616 2.77947H8.73944ZM18.588 9.7817C18.5746 9.87524 18.5613 9.92869 18.5479 9.98214C18.4811 10.236 18.5345 10.4098 18.7751 10.5835C19.323 10.971 19.3096 11.6124 18.7483 11.9732C18.4677 12.1603 18.1069 12.2539 17.7728 12.3474C17.5323 12.4142 17.2784 12.3875 17.0112 12.4142C16.9978 12.5211 16.9711 12.6414 16.9577 12.7483C16.9577 13.6837 16.931 14.6325 16.9443 15.5679C16.9443 15.8886 17.0245 16.2093 17.078 16.5167C17.078 16.5835 17.1849 16.6637 17.2517 16.677C18.147 16.824 19.0557 16.9576 19.951 17.0913C20.0178 17.0913 20.1515 17.0378 20.1782 16.971C20.3252 16.5835 20.5256 16.196 20.5657 15.8084C20.6459 14.9933 20.686 14.1514 20.6459 13.3363C20.5924 11.9866 20.0045 10.8641 18.9488 9.99551C18.8419 9.90197 18.7083 9.84851 18.5746 9.76834L18.588 9.7817ZM16.0357 9.82179C15.9555 9.86188 15.902 9.87524 15.8619 9.90197C15.8218 9.92869 15.7684 9.95542 15.7283 9.99551C14.8864 10.6503 14.3118 11.4922 14.0713 12.5478C13.8575 13.4699 13.9377 14.4187 13.9644 15.3674C13.9644 15.608 14.0446 15.8351 14.0713 16.0623C14.098 16.196 14.1515 16.2494 14.2985 16.2761C14.7795 16.3429 15.2472 16.4231 15.7283 16.4899C15.9154 16.5167 16.1158 16.5434 16.3029 16.5701C16.3029 16.53 16.3163 16.53 16.3163 16.5167C16.1292 15.1403 16.1426 13.7772 16.2762 12.4009C16.2762 12.334 16.2227 12.2405 16.1559 12.187C16.0891 12.1202 15.9822 12.0935 15.902 12.04C15.3007 11.6392 15.274 10.971 15.8753 10.5701C16.0757 10.4365 16.1292 10.2895 16.0757 10.089C16.0624 10.0089 16.049 9.94205 16.0357 9.83515V9.82179ZM20.0847 10.0089C20.0847 10.0089 20.0847 10.0356 20.0847 10.049C20.1114 10.089 20.1381 10.1291 20.1648 10.1559C20.7795 10.9042 21.2205 11.7461 21.3274 12.7082C21.4076 13.4565 21.3942 14.2049 21.4076 14.9532C21.4076 15.6882 21.2606 16.383 20.98 17.0512C20.9532 17.1046 20.9399 17.1715 20.9132 17.2383C20.9532 17.2516 20.9666 17.265 20.98 17.265C21.127 17.2917 21.274 17.3051 21.4076 17.3318C21.5813 17.3853 21.6882 17.3184 21.7951 17.1848C22.3965 16.4899 22.7706 15.6882 22.8642 14.7661C22.9043 14.3786 22.9043 13.9911 22.9043 13.5902C22.9043 12.8552 22.7573 12.1603 22.4232 11.5055C22.1025 10.8775 21.6749 10.3563 21.1002 9.94205C20.7662 9.68816 20.2717 9.72825 20.0579 9.99551L20.0847 10.0089ZM14.5657 10.049C14.2584 9.71488 13.8441 9.70152 13.4566 9.98214C12.8953 10.4098 12.4544 10.9443 12.147 11.5857C11.5991 12.6815 11.6392 13.8574 11.7728 15.02C11.7996 15.2739 11.8931 15.5278 11.9733 15.7683C11.9867 15.8218 12.0401 15.8886 12.0802 15.902C12.4945 15.9688 12.8953 16.0356 13.2561 16.089C13.2428 15.2205 13.2161 14.3652 13.2161 13.5233C13.2161 13.1759 13.2695 12.8418 13.3363 12.4944C13.5234 11.559 13.951 10.7572 14.5924 10.0356L14.5657 10.049ZM16.1559 11.2383C16.5835 11.7995 18.1336 11.7594 18.441 11.2516C18.3341 11.1848 18.2406 11.1046 18.1203 11.0512C17.706 10.8775 17.706 10.8775 17.7595 10.4231C17.7595 10.4231 17.7595 10.4098 17.7595 10.3964C17.853 9.34072 17.9599 8.28504 18.0535 7.216C18.0936 6.73493 17.7728 6.40085 17.3051 6.40085C16.8107 6.40085 16.5167 6.77502 16.5702 7.30954C16.6771 8.43203 16.7706 9.55453 16.8775 10.6637C16.8909 10.8374 16.8508 10.9176 16.6771 10.971C16.5034 11.0245 16.343 11.118 16.1559 11.2115V11.2383ZM4.20937 19.1225C3.76839 19.1225 3.35414 19.1225 2.92652 19.1225C2.48554 19.1225 2.05792 19.1225 1.61694 19.1225C1.38977 19.1225 1.21605 19.2962 1.21605 19.51C1.21605 19.7104 1.38977 19.8574 1.61694 19.8841C1.64367 19.8841 1.68376 19.8841 1.71049 19.8841C2.47218 19.8841 3.24723 19.8841 4.00893 19.8841C4.07574 19.8841 4.14256 19.8841 4.20937 19.8708V19.1358V19.1225ZM4.44991 18.0267C3.88866 17.9064 3.34077 17.7728 2.77953 17.6659C2.65926 17.6392 2.45881 17.6659 2.41873 17.7594C2.35191 17.8797 2.33855 18.0801 2.37864 18.2004C2.40536 18.2939 2.59245 18.3741 2.71271 18.3741C3.16706 18.3875 3.63476 18.3741 4.0891 18.3741C4.294 18.3741 4.41427 18.2583 4.44991 18.0267ZM4.46327 20.9666C4.40982 20.8196 4.46327 20.6325 4.24946 20.6191C3.70158 20.6191 3.15369 20.6191 2.60581 20.6191C2.392 20.6191 2.31182 20.8062 2.33855 21.0601C2.36527 21.2472 2.4989 21.3808 2.68599 21.3407C3.27396 21.2204 3.86193 21.0868 4.46327 20.9532V20.9666Z" fill="#3B82F6"/>
<path d="M14.6728 17.6523V21.3673H13.9512V17.6523H14.6728Z" fill="#3B82F6"/>
<path d="M7.96436 17.6523H8.6726V21.3673H7.96436V17.6523Z" fill="#3B82F6"/>
<path d="M10.9575 17.6523H11.6658V21.3539H10.9575V17.6523Z" fill="#3B82F6"/>
<path d="M16.9443 18.3877H17.6659V20.6193H16.9443V18.3877Z" fill="#3B82F6"/>
<path d="M19.9375 20.2317V18.7617H20.6591V20.2317H19.9375Z" fill="#3B82F6"/>
</g>
<defs>
<clipPath id="clip0_804_22174">
<rect width="24" height="24" fill="white"/>
</clipPath>
</defs>
</svg>
